<?xml version="1.0" encoding="UTF-8"?>
<svg version="1.1" xmlns="http://www.w3.org/2000/svg" width="128" height="128">
<path d="M0 0 C42.24 0 84.48 0 128 0 C128 42.24 128 84.48 128 128 C85.76 128 43.52 128 0 128 C0 85.76 0 43.52 0 0 Z " fill="#08F485" transform="translate(0,0)"/>
<path d="M0 0 C42.24 0 84.48 0 128 0 C128 42.24 128 84.48 128 128 C85.76 128 43.52 128 0 128 C0 85.76 0 43.52 0 0 Z M16 16 C16 47.68 16 79.36 16 112 C26.56 112 37.12 112 48 112 C48.33 97.15 48.66 82.3 49 67 C64.59700521 82.59700521 64.59700521 82.59700521 64.73754883 89.17700195 C64.68751709 90.03382568 64.63748535 90.89064941 64.5859375 91.7734375 C64.59149658 92.60464111 64.59705566 93.43584473 64.6027832 94.29223633 C64.60306052 97.32077614 64.48255923 100.34837077 64.375 103.375 C64.25125 110.18125 64.1275 116.9875 64 124 C79.84 124 95.68 124 112 124 C112 88.36 112 52.72 112 16 C96.48753194 14.72629128 96.48753194 14.72629128 86.87365723 22.41845703 C86.2855426 23.11237549 86.2855426 23.11237549 85.68554688 23.8203125 C85.23429443 24.34141602 84.78304199 24.86251953 84.31811523 25.39941406 C83.86251221 25.92760742 83.40690918 26.45580078 82.9375 27 C81.95925603 28.0637531 80.97684478 29.12368947 79.99023438 30.1796875 C77.61060677 32.74434518 75.29111117 35.35564788 73 38 C69.33275498 36.5238191 67.71041382 34.58701048 65.39453125 31.4296875 C60.10036897 24.66522412 60.10036897 24.66522412 49 16 C38.11 16 27.22 16 16 16 Z " fill="#FDFEFE" transform="translate(0,0)"/>
<path d="M0 0 C10.89 0 21.78 0 33 0 C33 0.33 33 0.66 33 1 C22.44 1 11.88 1 1 1 C1 32.02 1 63.04 1 95 C10.9 95 20.8 95 31 95 C31 76.19 31 57.38 31 38 C38.875 44.75 38.875 44.75 42.46655273 48.35302734 C43.2668541 49.15340424 44.06715546 49.95378113 44.89170837 50.77841187 C45.73053055 51.62239532 46.56935272 52.46637878 47.43359375 53.3359375 C48.31153091 54.21528961 49.18946808 55.09464172 50.0940094 56.00064087 C52.87754412 58.78974058 55.65756769 61.58231018 58.4375 64.375 C60.33216665 66.2752542 62.2275963 68.17474653 64.12304688 70.07421875 C68.75135161 74.71350604 73.37678421 79.35564167 78 84 C81.33369614 61.62024719 81.33369614 61.62024719 74.36378479 41.15855408 C68.73490985 34.5751541 62.0052419 29.05709126 55 24 C56.1122998 22.90619019 56.1122998 22.90619019 57.24707031 21.7902832 C59.62404121 19.38106004 61.84243782 16.92042214 64.046875 14.35546875 C65.61341322 12.63174836 67.18115505 10.90912118 68.75 9.1875 C69.49121094 8.30384766 70.23242188 7.42019531 70.99609375 6.50976562 C73.359375 3.98046875 73.359375 3.98046875 79 0 C84.61 0 90.22 0 96 0 C96 35.64 96 71.28 96 108 C80.16 108 64.32 108 48 108 C48.375 87.375 48.375 87.375 48.60302734 80.95849609 C48.60286908 79.23013385 48.59749651 77.5017611 48.5859375 75.7734375 C48.63596924 74.91661377 48.68600098 74.05979004 48.73754883 73.17700195 C48.49874406 61.99659713 41.78584962 59.78584962 33 51 C32.67 65.85 32.34 80.7 32 96 C21.44 96 10.88 96 0 96 C0 64.32 0 32.64 0 0 Z " fill="#038648" transform="translate(16,16)"/>
<path d="M0 0 C0.66 0.66 1.32 1.32 2 2 C3.32 1.34 4.64 0.68 6 0 C6 0.66 6 1.32 6 2 C6.62648438 2.08636719 7.25296875 2.17273437 7.8984375 2.26171875 C10.36265733 2.68537799 12.64347754 3.15992344 15 4 C17.14085668 7.25410215 17 9.05137109 17 13 C15.37064759 14.37868281 13.70250393 15.71274093 12 17 C10.99314613 20.02056161 10.84627314 22.13554614 10.79467773 25.29760742 C10.77473251 26.37850143 10.75478729 27.45939545 10.73423767 28.57304382 C10.70916893 30.32159416 10.70916893 30.32159416 10.68359375 32.10546875 C10.66281265 33.29981033 10.64203156 34.49415192 10.62062073 35.72468567 C10.55515724 39.54556443 10.4962549 43.36651276 10.4375 47.1875 C10.39431176 49.77539786 10.35069737 52.36328865 10.30664062 54.95117188 C10.19947905 61.30070968 10.09820236 67.65031756 10 74 C4.39 74 -1.22 74 -7 74 C-6.67 58.49 -6.34 42.98 -6 27 C-7.32 27 -8.64 27 -10 27 C-9.67 24.69 -9.34 22.38 -9 20 C-6.69 20 -4.38 20 -2 20 C-1.67 35.84 -1.34 51.68 -1 68 C-1.01740234 61.51666016 -1.01740234 61.51666016 -1.03515625 54.90234375 C-1.04159313 51.44285867 -1.04701385 47.9833753 -1.05175018 44.52388763 C-1.05701742 40.87927537 -1.06404944 37.2346866 -1.07543945 33.59008789 C-1.08635273 30.07580395 -1.09229464 26.5615427 -1.09487724 23.04724312 C-1.09760767 21.06265133 -1.1054062 19.07806859 -1.11329651 17.0934906 C-1.11365534 11.29398035 -1.07460889 5.70769773 0 0 Z " fill="#02F482" transform="translate(35,35)"/>
<path d="M0 0 C10.89 0 21.78 0 33 0 C33 0.33 33 0.66 33 1 C22.44 1 11.88 1 1 1 C1 32.02 1 63.04 1 95 C10.9 95 20.8 95 31 95 C31 76.19 31 57.38 31 38 C38.875 44.75 38.875 44.75 42.46655273 48.35302734 C43.2668541 49.15340424 44.06715546 49.95378113 44.89170837 50.77841187 C45.73053055 51.62239532 46.56935272 52.46637878 47.43359375 53.3359375 C48.31153091 54.21528961 49.18946808 55.09464172 50.0940094 56.00064087 C52.87754412 58.78974058 55.65756769 61.58231018 58.4375 64.375 C60.33216664 66.2752542 62.2275742 68.17476859 64.12304688 70.07421875 C68.75178587 74.71308628 73.37575376 79.35663653 78 84 C78.33 71.79 78.66 59.58 79 47 C79.33 47 79.66 47 80 47 C80 63.17 80 79.34 80 96 C78 95 76 94 74 93 C74 92.34 74 91.68 74 91 C73.34 91 72.68 91 72 91 C70.63823078 89.35648543 69.31037934 87.68477344 68 86 C65.50470545 83.37674162 63.04676855 81.03637554 60.1875 78.8125 C59.465625 78.214375 58.74375 77.61625 58 77 C58 76.34 58 75.68 58 75 C57.01 74.67 56.02 74.34 55 74 C52.8125 72.0625 52.8125 72.0625 51 70 C51 69.34 51 68.68 51 68 C50.34 68 49.68 68 49 68 C49 80.87 49 93.74 49 107 C64.18 107 79.36 107 95 107 C95 72.02 95 37.04 95 1 C89.72 1 84.44 1 79 1 C79 0.67 79 0.34 79 0 C84.61 0 90.22 0 96 0 C96 35.64 96 71.28 96 108 C80.16 108 64.32 108 48 108 C48.375 87.375 48.375 87.375 48.60302734 80.95849609 C48.60286908 79.23013385 48.59749651 77.5017611 48.5859375 75.7734375 C48.63596924 74.91661377 48.68600098 74.05979004 48.73754883 73.17700195 C48.49874406 61.99659713 41.78584962 59.78584962 33 51 C32.67 65.85 32.34 80.7 32 96 C21.44 96 10.88 96 0 96 C0 64.32 0 32.64 0 0 Z " fill="#034E21" transform="translate(16,16)"/>
<path d="M0 0 C0 5.28 0 10.56 0 16 C-5.61 16 -11.22 16 -17 16 C-17.66 17.32 -18.32 18.64 -19 20 C-19.99 20.33 -20.98 20.66 -22 21 C-22.33 21.99 -22.66 22.98 -23 24 C-23.66 24 -24.32 24 -25 24 C-25.268125 24.61875 -25.53625 25.2375 -25.8125 25.875 C-27 28 -27 28 -30 30 C-32.67373203 29.79473317 -33.75897904 29.23051775 -35.703125 27.37109375 C-36.46882813 26.41396484 -36.46882813 26.41396484 -37.25 25.4375 C-37.77078125 24.79683594 -38.2915625 24.15617187 -38.828125 23.49609375 C-39.21484375 23.00238281 -39.6015625 22.50867188 -40 22 C-38.989375 21.154375 -37.97875 20.30875 -36.9375 19.4375 C-33.91533336 16.88191348 -31.27948663 14.20679295 -28.7265625 11.1953125 C-19.32126828 0.41825292 -14.36155277 -1.78035778 0 0 Z " fill="#0AA45A" transform="translate(111,17)"/>
<path d="M0 0 C3.37344551 0.44979273 4.66119029 1.66119029 7 4 C7.99 4 8.98 4 10 4 C10 4.99 10 5.98 10 7 C10.66 7 11.32 7 12 7 C12.33 6.01 12.66 5.02 13 4 C14.98 3.67 16.96 3.34 19 3 C19 2.34 19 1.68 19 1 C21.475 1.495 21.475 1.495 24 2 C24 2.66 24 3.32 24 4 C24.99 4.33 25.98 4.66 27 5 C27.07408587 9.09333905 27.1285704 13.18641933 27.16479492 17.28027344 C27.17989358 18.67324622 27.20037444 20.06617138 27.22631836 21.45898438 C27.26265122 23.45942885 27.27811192 25.46021827 27.29296875 27.4609375 C27.3086792 28.66540527 27.32438965 29.86987305 27.34057617 31.11083984 C27.22818604 32.0642627 27.1157959 33.01768555 27 34 C26.01 34.66 25.02 35.32 24 36 C21 34 21 34 20.3125 31.875 C20.209375 31.25625 20.10625 30.6375 20 30 C19.01 30 18.02 30 17 30 C17 27 17 27 18 24 C18 23.34 18 22.68 18 22 C17.34 22 16.68 22 16 22 C16 21.34 16 20.68 16 20 C15.34 20 14.68 20 14 20 C14 19.34 14 18.68 14 18 C12.68 17.34 11.36 16.68 10 16 C10 15.34 10 14.68 10 14 C9.34 14 8.68 14 8 14 C8 13.34 8 12.68 8 12 C7.34 12 6.68 12 6 12 C6 11.34 6 10.68 6 10 C5.34 10 4.68 10 4 10 C4.33 8.68 4.66 7.36 5 6 C4.34 6 3.68 6 3 6 C2.67 6.66 2.34 7.32 2 8 C1.01 5.69 0.02 3.38 -1 1 C-0.67 0.67 -0.34 0.34 0 0 Z " fill="#03FB89" transform="translate(66,58)"/>
<path d="M0 0 C0.33 0 0.66 0 1 0 C1 16.17 1 32.34 1 49 C-1 48 -3 47 -5 46 C-5 45.34 -5 44.68 -5 44 C-5.66 44 -6.32 44 -7 44 C-8.36176922 42.35648543 -9.68962066 40.68477344 -11 39 C-13.49529455 36.37674162 -15.95323145 34.03637554 -18.8125 31.8125 C-19.534375 31.214375 -20.25625 30.61625 -21 30 C-21 29.34 -21 28.68 -21 28 C-21.99 27.67 -22.98 27.34 -24 27 C-26.1875 25.0625 -26.1875 25.0625 -28 23 C-28 22.34 -28 21.68 -28 21 C-28.66 21 -29.32 21 -30 21 C-29.505 19.515 -29.505 19.515 -29 18 C-28.4225 18.45375 -27.845 18.9075 -27.25 19.375 C-24.49152109 21.36723477 -21.78364749 22.69066546 -18.625 23.9375 C-17.325625 24.4634375 -17.325625 24.4634375 -16 25 C-14.63875 25.5259375 -14.63875 25.5259375 -13.25 26.0625 C-10 28 -10 28 -1 37 C-0.67 24.79 -0.34 12.58 0 0 Z " fill="#025926" transform="translate(95,63)"/>
<path d="M0 0 C2.97 0 5.94 0 9 0 C11.40316291 3.60474436 11.24312609 5.20689591 11.22705078 9.4909668 C11.22734283 10.1448941 11.22763489 10.79882141 11.22793579 11.4725647 C11.2265437 13.63158489 11.21098857 15.79025893 11.1953125 17.94921875 C11.19158193 19.44708569 11.18873517 20.94495507 11.18673706 22.44282532 C11.17910403 26.38350167 11.15945845 30.32403038 11.1373291 34.26464844 C11.11686353 38.28643802 11.10773382 42.30825147 11.09765625 46.33007812 C11.07621218 54.2201198 11.04208029 62.11004153 11 70 C10.67 70 10.34 70 10 70 C10 54.16 10 38.32 10 22 C6.7 22 3.4 22 0 22 C0 14.74 0 7.48 0 0 Z " fill="#2FE28F" transform="translate(24,31)"/>
<path d="M0 0 C10.89 0 21.78 0 33 0 C35.64 2.64 38.28 5.28 41 8 C40.34 8.66 39.68 9.32 39 10 C36.69 7.36 34.38 4.72 32 2 C21.77 1.67 11.54 1.34 1 1 C1 31.36 1 61.72 1 93 C10.24 93 19.48 93 29 93 C29 74.85 29 56.7 29 38 C29.33 38 29.66 38 30 38 C30 56.48 30 74.96 30 94 C20.1 94 10.2 94 0 94 C0 62.98 0 31.96 0 0 Z " fill="#31E08D" transform="translate(17,17)"/>
<path d="M0 0 C0.433125 0.495 0.86625 0.99 1.3125 1.5 C2.99740483 3.33218192 2.99740483 3.33218192 6 3 C6.66 2.34 7.32 1.68 8 1 C12.54682926 4.14433491 17.10955121 7.56324659 18.54504395 13.1036377 C19.26004926 18.93303397 18.91219912 24.77589192 18.625 30.625 C18.57475853 32.41003096 18.52914534 34.1951985 18.48828125 35.98046875 C18.37887996 40.32372587 18.20683249 44.66033607 18 49 C12.74825074 44.61557474 7.86777527 39.99157907 3.0625 35.125 C2.37865234 34.43664062 1.69480469 33.74828125 0.99023438 33.0390625 C-0.67551464 31.36166489 -2.3388622 29.68196209 -4 28 C-1 28 -1 28 2 29 C2.99 29 3.98 29 5 29 C5 29.66 5 30.32 5 31 C5.99 31.33 6.98 31.66 8 32 C7.34 32.99 6.68 33.98 6 35 C6.99 35 7.98 35 9 35 C9.66 35.99 10.32 36.98 11 38 C10.67 38.66 10.34 39.32 10 40 C11.94603274 40.59070014 11.94603274 40.59070014 14 41 C16.61395221 38.38604779 15.23009544 31.2478477 15.24023438 27.69921875 C15.24992838 25.64021227 15.28093283 23.58220893 15.3125 21.5234375 C15.31765625 20.22921875 15.3228125 18.935 15.328125 17.6015625 C15.3374707 16.40869629 15.34681641 15.21583008 15.35644531 13.98681641 C15.2523139 11.01802783 15.2523139 11.01802783 13.61621094 9.13037109 C11.76809713 7.83780811 10.21069452 7.38115423 8 7 C7.67 7.66 7.34 8.32 7 9 C6.34 8.67 5.68 8.34 5 8 C5 7.34 5 6.68 5 6 C4.38125 5.731875 3.7625 5.46375 3.125 5.1875 C1 4 1 4 -1 1 C-0.67 0.67 -0.34 0.34 0 0 Z " fill="#16F38D" transform="translate(77,52)"/>
<path d="M0 0 C1.98 0.99 1.98 0.99 4 2 C4 1.34 4 0.68 4 0 C4.66 0 5.32 0 6 0 C6 0.66 6 1.32 6 2 C6.66 2 7.32 2 8 2 C8 2.66 8 3.32 8 4 C8.66 4 9.32 4 10 4 C12.125 5.875 12.125 5.875 14 8 C14 8.66 14 9.32 14 10 C14.66 10 15.32 10 16 10 C16 10.66 16 11.32 16 12 C16.66 12 17.32 12 18 12 C18.33 13.32 18.66 14.64 19 16 C18.01 15.67 17.02 15.34 16 15 C16 14.34 16 13.68 16 13 C15.34 13.28875 14.68 13.5775 14 13.875 C9.80519621 14.04978349 7.98162818 12.27491838 4.8046875 9.69140625 C2.62826939 7.65160313 1.18575542 5.7420594 0 3 C0 2.01 0 1.02 0 0 Z " fill="#0BEA81" transform="translate(66,68)"/>
<path d="M0 0 C1.33333333 1.33333333 2.66666667 2.66666667 4 4 C4.66 4 5.32 4 6 4 C6 4.99 6 5.98 6 7 C6.99 7 7.98 7 9 7 C9.33 8.32 9.66 9.64 10 11 C11.32 11.33 12.64 11.66 14 12 C14 12.66 14 13.32 14 14 C13.01 13.67 12.02 13.34 11 13 C11.33 14.65 11.66 16.3 12 18 C6.75715884 13.6309657 1.48058696 9.16722236 -3 4 C-3 3.34 -3 2.68 -3 2 C-2.01 1.34 -1.02 0.68 0 0 Z " fill="#0FF48C" transform="translate(56,56)"/>
<path d="M0 0 C2.97 0 5.94 0 9 0 C9 2.97 9 5.94 9 9 C6.03 9 3.06 9 0 9 C0 6.03 0 3.06 0 0 Z " fill="#11512D" transform="translate(24,44)"/>
<path d="M0 0 C2.97 0 5.94 0 9 0 C9 2.97 9 5.94 9 9 C6.03 9 3.06 9 0 9 C0 6.03 0 3.06 0 0 Z " fill="#184C2F" transform="translate(24,33)"/>
<path d="M0 0 C0.928125 0.33 1.85625 0.66 2.8125 1 C5.92029291 2.14967004 5.92029291 2.14967004 9 2 C9 2.66 9 3.32 9 4 C9.99 4.33 10.98 4.66 12 5 C11.01 6.485 11.01 6.485 10 8 C10.99 8 11.98 8 13 8 C13.99 9.485 13.99 9.485 15 11 C14.67 11.66 14.34 12.32 14 13 C17.01031744 13.93423645 17.86650268 14.04449911 21 13 C21 14.65 21 16.3 21 18 C20.01 18.33 19.02 18.66 18 19 C14.99599642 16.02484693 11.99747845 13.04422593 9 10.0625 C8.14148438 9.21236328 7.28296875 8.36222656 6.3984375 7.48632812 C5.58632812 6.67744141 4.77421875 5.86855469 3.9375 5.03515625 C3.18339844 4.2862915 2.42929688 3.53742676 1.65234375 2.76586914 C0 1 0 1 0 0 Z " fill="#0FF28D" transform="translate(73,79)"/>
<path d="M0 0 C0.66 0.33 1.32 0.66 2 1 C1.67 1.99 1.34 2.98 1 4 C0.01 4 -0.98 4 -2 4 C-2.10054687 4.60328125 -2.20109375 5.2065625 -2.3046875 5.828125 C-3.13234215 8.41338334 -3.99057565 9.12286036 -6.125 10.75 C-10.258127 14.08730752 -13.60323579 17.93214256 -17 22 C-17.99 21.34 -18.98 20.68 -20 20 C-13.4 13.4 -6.8 6.8 0 0 Z " fill="#13834C" transform="translate(94,17)"/>
<path d="M0 0 C0.99 0.33 1.98 0.66 3 1 C4 3.33333333 5 5.66666667 6 8 C6.99 8.33 7.98 8.66 9 9 C8.34 10.32 7.68 11.64 7 13 C6.01 12.67 5.02 12.34 4 12 C3.3125 9.9375 3.3125 9.9375 3 8 C2.01 8 1.02 8 0 8 C0 7.01 0 6.02 0 5 C-0.66 5 -1.32 5 -2 5 C-2 5.66 -2 6.32 -2 7 C-2.66 6.67 -3.32 6.34 -4 6 C-4 4.35 -4 2.7 -4 1 C-3.34 1 -2.68 1 -2 1 C-1.34 1.66 -0.68 2.32 0 3 C0 2.01 0 1.02 0 0 Z " fill="#0CD970" transform="translate(62,55)"/>
<path d="M0 0 C1.65 1.65 3.3 3.3 5 5 C4.01 5.33 3.02 5.66 2 6 C1.67 18.54 1.34 31.08 1 44 C0.67 44 0.34 44 0 44 C0 29.48 0 14.96 0 0 Z " fill="#E5FCF6" transform="translate(48,66)"/>
<path d="M0 0 C2 0 2 0 4.125 1.875 C6 4 6 4 6 6 C6.66 6 7.32 6 8 6 C8 6.66 8 7.32 8 8 C8.66 8 9.32 8 10 8 C10.33 9.32 10.66 10.64 11 12 C10.01 11.67 9.02 11.34 8 11 C8 10.34 8 9.68 8 9 C7.2575 9.2475 6.515 9.495 5.75 9.75 C3 10 3 10 0.625 8.4375 C-1 6 -1 6 -0.75 2.75 C-0.5025 1.8425 -0.255 0.935 0 0 Z " fill="#09D56E" transform="translate(74,72)"/>
<path d="M0 0 C2.31 1.98 4.62 3.96 7 6 C6.01 6.33 5.02 6.66 4 7 C4.66 8.65 5.32 10.3 6 12 C3 12 3 12 0.875 10.3125 C-1.20769606 7.74384152 -1.83155475 6.28468231 -2 3 C-1.34 2.01 -0.68 1.02 0 0 Z " fill="#066837" transform="translate(83,90)"/>
<path d="M0 0 C2.5 1.4375 2.5 1.4375 5 4 C5.4451258 7.04256578 5.29359745 9.9465865 5 13 C3.02 11.35 1.04 9.7 -1 8 C-0.79375 7.401875 -0.5875 6.80375 -0.375 6.1875 C0.30671915 3.71549154 0.30671915 3.71549154 -2 1 C-1.34 0.67 -0.68 0.34 0 0 Z " fill="#096436" transform="translate(90,97)"/>
<path d="M0 0 C4.53287116 3.73295272 8.37382288 7.38486548 12 12 C8.32579134 11.69381595 7.21864487 11.24228216 4.6875 8.4375 C4.130625 7.633125 3.57375 6.82875 3 6 C2.67 7.32 2.34 8.64 2 10 C1.34 10 0.68 10 0 10 C0 6.7 0 3.4 0 0 Z " fill="#007132" transform="translate(47,54)"/>
<path d="M0 0 C2.31 0.33 4.62 0.66 7 1 C7 1.66 7 2.32 7 3 C7.66 3.33 8.32 3.66 9 4 C8.195625 4.28875 7.39125 4.5775 6.5625 4.875 C3.8673532 5.73262568 3.8673532 5.73262568 3 8 C2.34 8 1.68 8 1 8 C0.67 7.34 0.34 6.68 0 6 C-0.99 5.67 -1.98 5.34 -3 5 C-2.34 4.67 -1.68 4.34 -1 4 C-0.34786708 1.97536745 -0.34786708 1.97536745 0 0 Z " fill="#05E77A" transform="translate(75,57)"/>
<path d="M0 0 C4.07106981 2.86075176 6.13157293 5.37810146 8 10 C8 10.99 8 11.98 8 13 C6.68 12.67 5.36 12.34 4 12 C3.67 10.35 3.34 8.7 3 7 C2.34 7 1.68 7 1 7 C0.67 4.69 0.34 2.38 0 0 Z " fill="#0EE27E" transform="translate(66,34)"/>
<path d="M0 0 C0.33 0 0.66 0 1 0 C1 12.54 1 25.08 1 38 C0.01 37.34 -0.98 36.68 -2 36 C-2 35.34 -2 34.68 -2 34 C-1.34 34 -0.68 34 0 34 C0 22.78 0 11.56 0 0 Z " fill="#32E08C" transform="translate(94,63)"/>
<path d="M0 0 C17.70421973 -1.31517061 17.70421973 -1.31517061 23.109375 1.78125 C25.02030452 3.76192148 26.58892172 5.64118258 28 8 C27.34 8.66 26.68 9.32 26 10 C25.71511719 9.43410156 25.43023437 8.86820313 25.13671875 8.28515625 C22.90303787 4.85937614 20.96196089 2.42615291 16.80371094 1.52294922 C11.21290601 0.90356931 5.61838348 0.91019567 0 1 C0 0.67 0 0.34 0 0 Z " fill="#26C174" transform="translate(30,17)"/>
<path d="M0 0 C2.375 0.1875 2.375 0.1875 5 1 C6.1875 3.375 6.1875 3.375 7 6 C7.99 7.485 7.99 7.485 9 9 C7.02 9 5.04 9 3 9 C3 7.35 3 5.7 3 4 C2.01 3.67 1.02 3.34 0 3 C0 2.01 0 1.02 0 0 Z " fill="#0FC665" transform="translate(71,49)"/>
<path d="M0 0 C2.8125 0.125 2.8125 0.125 6 1 C7.875 4.0625 7.875 4.0625 9 7 C3.49411765 6.51058824 3.49411765 6.51058824 1.125 4.0625 C0 2 0 2 0 0 Z " fill="#0ED36F" transform="translate(41,32)"/>
<path d="M0 0 C3.28212246 0.43761633 4.84832931 1.52557871 7 4 C6.67 4.66 6.34 5.32 6 6 C5.34 6 4.68 6 4 6 C3.34 6.66 2.68 7.32 2 8 C1.01 5.69 0.02 3.38 -1 1 C-0.67 0.67 -0.34 0.34 0 0 Z " fill="#12F68F" transform="translate(66,58)"/>
<path d="M0 0 C0.66 0.66 1.32 1.32 2 2 C1.67 2.66 1.34 3.32 1 4 C2.65 4.33 4.3 4.66 6 5 C6 5.99 6 6.98 6 8 C4.68 7.01 3.36 6.02 2 5 C2.33 5.99 2.66 6.98 3 8 C2.01 8 1.02 8 0 8 C0 7.34 0 6.68 0 6 C-0.66 5.67 -1.32 5.34 -2 5 C-1.34 3.35 -0.68 1.7 0 0 Z " fill="#17F690" transform="translate(60,50)"/>
<path d="M0 0 C1.32 1.65 2.64 3.3 4 5 C3.34 5.66 2.68 6.32 2 7 C2 6.01 2 5.02 2 4 C-1.0745356 4.7763932 -1.0745356 4.7763932 -3 7 C-3.99 5.02 -4.98 3.04 -6 1 C-3.03 1.495 -3.03 1.495 0 2 C0 1.34 0 0.68 0 0 Z " fill="#03E576" transform="translate(67,43)"/>
<path d="M0 0 C3.76607955 1.25535985 4.26441793 2.52883585 6 6 C6 6.99 6 7.98 6 9 C4.85073734 8.04578192 3.70569459 7.08647955 2.5625 6.125 C1.92441406 5.59132813 1.28632812 5.05765625 0.62890625 4.5078125 C-1 3 -1 3 -2 1 C-1.34 0.67 -0.68 0.34 0 0 Z " fill="#037A34" transform="translate(81,46)"/>
<path d="M0 0 C1.17539996 0.92652701 2.34010577 1.86663387 3.5 2.8125 C4.1496875 3.33457031 4.799375 3.85664063 5.46875 4.39453125 C7 6 7 6 7 9 C5.2925002 7.71937515 3.62626404 6.38232443 2 5 C2 4.34 2 3.68 2 3 C1.34 3 0.68 3 0 3 C0 2.01 0 1.02 0 0 Z " fill="#1BAB62" transform="translate(58,26)"/>
<path d="M0 0 C1.65 0 3.3 0 5 0 C5 1.32 5 2.64 5 4 C3.35 4 1.7 4 0 4 C0 2.68 0 1.36 0 0 Z " fill="#2D3D39" transform="translate(26,46)"/>
<path d="M0 0 C1.32 0.33 2.64 0.66 4 1 C4 2.65 4 4.3 4 6 C3.01 5.67 2.02 5.34 1 5 C0.67 3.35 0.34 1.7 0 0 Z " fill="#0BF687" transform="translate(70,55)"/>
<path d="M0 0 C2.97 0.495 2.97 0.495 6 1 C5.34 2.32 4.68 3.64 4 5 C3.01 4.67 2.02 4.34 1 4 C0.3125 1.9375 0.3125 1.9375 0 0 Z " fill="#0EC363" transform="translate(65,63)"/>
</svg>
